<svg height="512pt" viewBox="0 0 512 512.00121" width="512pt" xmlns="http://www.w3.org/2000/svg"><path d="m332 96c-40.101562 0-74.070312 26.230469-85.710938 62.460938l94.050782 97.539062h48.21875c20.402344-16.492188 33.441406-41.722656 33.441406-70 0-49.710938-40.289062-90-90-90zm0 0" fill="#ffcf57"/><path d="m392 256c38.660156 0 70 31.339844 70 70 0 38.65625-31.339844 69.996094-70 69.996094-64.445312 0-247.214844 0-312 0-38.660156 0-70-31.339844-70-69.996094 0-38.660156 31.339844-70 70-70h23.660156c9.519532-56.75 58.878906-100 118.339844-100 59.085938 0 108.753906 42.871094 118.339844 100zm0 0" fill="#e9fffb"/><path d="m252 196c0 5.523438-4.476562 10-10 10s-10-4.476562-10-10 4.476562-10 10-10 10 4.476562 10 10zm0 0"/><path d="m199.617188 188.785156c-34.421876 8.746094-60.472657 37.078125-66.367188 72.175782-1.019531 6.066406 3.644531 11.660156 9.875 11.660156 4.792969 0 9.027344-3.460938 9.847656-8.34375 4.585938-27.289063 24.828125-49.3125 51.570313-56.105469 5.355469-1.359375 8.589843-6.800781 7.230469-12.152344-1.359376-5.355469-6.796876-8.59375-12.15625-7.234375zm0 0"/><path d="m322 10v46c0 5.523438 4.476562 10 10 10s10-4.476562 10-10v-46c0-5.523438-4.476562-10-10-10s-10 4.476562-10 10zm0 0"/><path d="m512 186c0-5.523438-4.480469-10-10-10h-40c-5.523438 0-10 4.476562-10 10s4.476562 10 10 10h40c5.523438 0 10-4.476562 10-10zm0 0"/><path d="m204.71875 58.71875c-3.90625 3.90625-3.90625 10.238281 0 14.144531l28.289062 28.289063c3.90625 3.902344 10.238282 3.902344 14.144532 0 3.90625-3.90625 3.90625-10.238282 0-14.144532l-28.289063-28.289062c-3.90625-3.90625-10.238281-3.90625-14.144531 0zm0 0"/><path d="m445.136719 58.71875-28.289063 28.289062c-3.90625 3.90625-3.90625 10.238282 0 14.144532 3.90625 3.902344 10.238282 3.902344 14.144532 0l28.289062-28.289063c3.90625-3.90625 3.90625-10.238281 0-14.144531s-10.238281-3.90625-14.144531 0zm0 0"/><path d="m157.292969 451.078125-26 46c-2.714844 4.808594-1.019531 10.90625 3.785156 13.625 4.851563 2.738281 10.933594.984375 13.628906-3.785156l26-46c2.714844-4.808594 1.019531-10.90625-3.785156-13.625-4.808594-2.71875-10.910156-1.023438-13.628906 3.785156zm0 0"/><path d="m351.527344 444.941406c4.941406 2.46875 10.949218.464844 13.417968-4.472656l17.234376-34.472656h9.820312c44.113281 0 80-35.886719 80-79.996094 0-37.796875-26.351562-69.53125-61.640625-77.851562 13.925781-17.5 21.640625-39.257813 21.640625-62.148438 0-55.140625-44.859375-100-100-100-40.691406 0-76.714844 24.269531-92.199219 61.222656-5.886719-.808594-11.84375-1.222656-17.800781-1.222656-60.945312 0-112.816406 42.160156-126.515625 100h-15.484375c-44.109375 0-80 35.886719-80 80 0 44.109375 35.890625 79.996094 80 79.996094h19.820312l-12.761718 25.53125c-2.472656 4.9375-.46875 10.945312 4.472656 13.414062 4.9375 2.472656 10.945312.46875 13.414062-4.472656l17.238282-34.472656h107.636718l-12.765624 25.53125c-2.46875 4.9375-.464844 10.945312 4.472656 13.414062 4.941406 2.472656 10.949218.46875 13.417968-4.472656l17.234376-34.472656h107.640624l-12.765624 25.53125c-2.46875 4.9375-.46875 10.945312 4.472656 13.414062zm-19.527344-338.941406c44.109375 0 80 35.886719 80 80 0 23.121094-9.839844 44.792969-27.105469 60h-36.375c-10.601562-44.992188-44.667969-81.085938-88.765625-94.414062 13.113282-27.644532 40.953125-45.585938 72.246094-45.585938zm-312 220c0-33.085938 26.917969-60 60-60h23.660156c4.886719 0 9.054688-3.53125 9.863282-8.347656 8.910156-53.109375 54.53125-91.652344 108.476562-91.652344 54.96875 0 99.882812 40.417969 108.476562 91.652344.808594 4.816406 4.980469 8.347656 9.863282 8.347656h51.660156c33.082031 0 60 26.914062 60 60 0 33.082031-26.917969 59.996094-60 59.996094h-312c-33.082031 0-60-26.914063-60-59.996094zm0 0"/><path d="m287.292969 451.078125-26 46c-2.714844 4.808594-1.019531 10.90625 3.785156 13.625 4.851563 2.738281 10.933594.984375 13.628906-3.785156l26-46c2.714844-4.808594 1.019531-10.90625-3.785156-13.625-4.808594-2.71875-10.910156-1.023438-13.628906 3.785156zm0 0"/><path d="m5.082031 510.703125c4.847657 2.738281 10.929688.984375 13.625-3.785156l26-46c2.71875-4.808594 1.023438-10.910157-3.785156-13.625-4.804687-2.71875-10.90625-1.023438-13.625 3.785156l-26 46c-2.71875 4.808594-1.023437 10.90625 3.785156 13.625zm0 0"/></svg>