<svg id="Capa_1" enable-background="new 0 0 512 512" height="512" viewBox="0 0 512 512" width="512" xmlns="http://www.w3.org/2000/svg"><g><g><g clip-rule="evenodd" fill-rule="evenodd"><path d="m230.868 153.846c.404-33.925 19.446-63.366 47.366-78.552-10.118-38.997-45.543-67.794-87.704-67.794-50.258 0-91.187 41.311-90.603 91.59-42.325-12.202-92.427 16.834-92.427 69.026 0 39.719 32.199 71.918 71.918 71.918h27.936c0-34.816 30.919-61.23 65.132-56.221 5.705-21.291 30.228-35.967 58.382-29.967z" fill="#a8c6e2"/><path d="m98.427 379.971c1.578-22.105-22.425-42.496-22.425-55.743 0 13.247-24.003 33.638-22.425 55.743.67 9.389 6.197 23.007 22.425 23.007s21.755-13.618 22.425-23.007zm299.848 101.522c1.578-22.105-22.425-42.496-22.425-55.743 0 13.247-24.004 33.638-22.425 55.743.67 9.389 6.197 23.007 22.425 23.007s21.754-13.618 22.425-23.007zm-119.999 0c1.578-22.105-22.425-42.496-22.425-55.743 0 13.247-24.004 33.638-22.425 55.743.67 9.389 6.197 23.007 22.425 23.007s21.755-13.618 22.425-23.007zm-119.998 0c1.578-22.105-22.426-42.496-22.426-55.743 0 13.247-24.004 33.638-22.425 55.743.67 9.389 6.197 23.007 22.425 23.007s21.755-13.618 22.426-23.007zm300.145-101.522c1.578-22.105-22.425-42.496-22.425-55.743 0 13.247-24.004 33.638-22.425 55.743.67 9.389 6.197 23.007 22.425 23.007s21.754-13.618 22.425-23.007zm-119.999 0c1.578-22.105-22.425-42.496-22.425-55.743 0 13.247-24.004 33.638-22.425 55.743.67 9.389 6.197 23.007 22.425 23.007 16.229 0 21.755-13.618 22.425-23.007zm-119.998 0c1.578-22.105-22.425-42.496-22.425-55.743 0 13.247-24.004 33.638-22.425 55.743.67 9.389 6.197 23.007 22.425 23.007s21.754-13.618 22.425-23.007z" fill="#e3edf6"/><path d="m98.427 379.971c.333-4.661-.474-9.245-1.951-13.702-2.825 7.343-8.951 14.209-20.474 14.209s-17.649-6.866-20.474-14.209c-1.477 4.457-2.284 9.041-1.951 13.702.67 9.389 6.197 23.007 22.425 23.007s21.755-13.618 22.425-23.007zm299.848 101.522c.333-4.661-.474-9.245-1.951-13.702-2.824 7.343-8.951 14.209-20.474 14.209s-17.649-6.866-20.474-14.209c-1.477 4.457-2.284 9.041-1.951 13.702.67 9.389 6.197 23.007 22.425 23.007s21.754-13.618 22.425-23.007zm-119.999 0c.333-4.661-.474-9.245-1.951-13.702-2.825 7.343-8.951 14.209-20.474 14.209s-17.649-6.866-20.474-14.209c-1.477 4.457-2.284 9.041-1.951 13.702.67 9.389 6.197 23.007 22.425 23.007s21.755-13.618 22.425-23.007zm-119.998 0c.333-4.661-.474-9.245-1.951-13.702-2.825 7.343-8.951 14.209-20.474 14.209s-17.649-6.866-20.474-14.209c-1.477 4.457-2.284 9.041-1.951 13.702.67 9.389 6.197 23.007 22.425 23.007s21.754-13.618 22.425-23.007zm300.145-101.522c.333-4.661-.474-9.245-1.951-13.702-2.824 7.343-8.951 14.209-20.474 14.209s-17.649-6.866-20.474-14.209c-1.477 4.457-2.284 9.041-1.951 13.702.67 9.389 6.197 23.007 22.425 23.007s21.754-13.618 22.425-23.007zm-119.999 0c.333-4.661-.474-9.245-1.951-13.702-2.824 7.343-8.951 14.209-20.474 14.209s-17.649-6.866-20.474-14.209c-1.477 4.457-2.284 9.041-1.951 13.702.67 9.389 6.197 23.007 22.425 23.007 16.229 0 21.755-13.618 22.425-23.007zm-119.998 0c.333-4.661-.474-9.245-1.951-13.702-2.824 7.343-8.951 14.209-20.474 14.209s-17.649-6.866-20.474-14.209c-1.477 4.457-2.284 9.041-1.951 13.702.67 9.389 6.197 23.007 22.425 23.007s21.754-13.618 22.425-23.007z" fill="#a8c6e2"/><path d="m432.582 296.862c39.719 0 71.918-32.199 71.918-71.918 0-52.192-50.101-81.228-92.427-69.027.584-50.278-40.345-91.589-90.603-91.589-49.364 0-90.009 39.662-90.602 89.518-28.154-6-52.677 8.677-58.382 29.967-34.213-5.008-65.132 21.406-65.132 56.221 0 31.385 25.443 56.828 56.828 56.828z" fill="#e3edf6"/></g><g><path d="m373.97 124.328h-15v-15h15zm-30-15.001h-15v-15h15z" fill="#fff"/></g><path clip-rule="evenodd" d="m504.5 224.944c0-3.957-.292-7.778-.843-11.461-5.312 34.478-35.11 60.879-71.075 60.879h-268.4c-27.541 0-50.504-19.593-55.716-45.6-.727 3.633-1.112 7.4-1.112 11.272 0 31.385 25.443 56.828 56.828 56.828h268.4c39.719 0 71.918-32.199 71.918-71.918z" fill="#a8c6e2" fill-rule="evenodd"/></g><g><path d="m380.082 289.362h15v15h-15z"/><path d="m496.626 177.536c-9.285-12.376-22.138-21.747-37.17-27.098-13.366-4.759-27.139-5.917-40.215-3.78-1.889-22.805-11.654-44.054-28.03-60.621-18.618-18.835-43.386-29.209-69.741-29.209-13.509 0-26.611 2.724-38.676 7.9-13.9-38.526-50.625-64.728-92.264-64.728-21.469 0-41.888 6.864-59.051 19.851l9.051 11.962c14.535-11 31.825-16.813 50-16.813 35.972 0 67.609 23.082 78.828 56.776-6.03 3.794-11.687 8.274-16.871 13.401-16.435 16.254-26.434 37.33-28.654 60.068-24.966-2.046-47.811 10.251-56.487 30.541-16.468-.8-32.669 4.733-45.258 15.614-12.223 10.564-19.925 25.258-21.784 41.134h-20.886c-35.52 0-64.418-28.898-64.418-64.418 0-20.742 8.824-38.805 24.848-50.863 16.647-12.528 38.33-16.623 58.003-10.953l9.693 2.793-.117-10.087c-.249-21.425 7.728-41.888 22.461-57.619l-10.948-10.252c-15.232 16.264-24.346 36.823-26.176 58.685-21.542-3.477-44.114 2.036-61.936 15.448-19.88 14.96-30.828 37.28-30.828 62.848 0 43.791 35.627 79.418 79.418 79.418h20.888c3.729 31.948 30.944 56.828 63.876 56.828h200.9v-15h-200.9c-27.199 0-49.328-22.128-49.328-49.328 0-14.335 6.211-27.925 17.042-37.286 10.877-9.401 25.276-13.6 39.503-11.515l6.604.966 1.727-6.446c5.576-20.806 29.585-28.833 49.574-24.573l8.954 1.908.109-9.154c.262-21.989 9.022-42.62 24.667-58.093 15.658-15.486 36.411-24.014 58.436-24.014 22.316 0 43.295 8.791 59.074 24.753 14.513 14.683 22.898 33.694 23.927 54.008-12.742 4.777-24.282 12.926-33.405 24.115l11.625 9.479c17.333-21.258 45.492-28.956 71.734-19.614 20.582 7.328 42.575 27.036 42.575 60.376 0 35.52-28.898 64.418-64.418 64.418h-22.5v15h22.5c43.791 0 79.418-35.627 79.418-79.418 0-17.609-5.316-34.003-15.374-47.408z"/><path d="m91.499 340.495c-3.749-6.005-7.997-12.811-7.997-16.267h-15c0 3.456-4.249 10.262-7.997 16.268-6.903 11.059-15.494 24.822-14.409 40.01 1.065 14.919 10.726 29.973 29.906 29.973s28.841-15.054 29.906-29.973c1.085-15.189-7.506-28.952-14.409-40.011zm-.553 38.942c-.269 3.763-2.141 16.041-14.944 16.041s-14.676-12.278-14.944-16.041c-.737-10.318 6.122-21.305 12.172-30.999.953-1.527 1.884-3.019 2.772-4.481.888 1.462 1.819 2.954 2.772 4.481 6.051 9.693 12.909 20.681 12.172 30.999z"/><path d="m443.498 324.228h-15c0 3.456-4.249 10.262-7.997 16.268-6.903 11.059-15.494 24.822-14.409 40.01 1.065 14.919 10.726 29.973 29.906 29.973s28.84-15.053 29.906-29.973c1.084-15.188-7.506-28.951-14.41-40.01-3.748-6.006-7.996-12.812-7.996-16.268zm7.444 55.208c-.269 3.763-2.141 16.042-14.944 16.042-12.804 0-14.676-12.278-14.944-16.041-.737-10.318 6.122-21.305 12.172-30.999.953-1.527 1.884-3.019 2.772-4.481.888 1.462 1.819 2.954 2.772 4.481 6.05 9.693 12.908 20.681 12.172 30.998z"/><path d="m211.497 340.495c-3.748-6.005-7.997-12.811-7.997-16.267h-15c0 3.456-4.249 10.262-7.997 16.268-6.903 11.059-15.494 24.822-14.409 40.01 1.065 14.919 10.726 29.973 29.906 29.973s28.841-15.054 29.906-29.973c1.085-15.189-7.506-28.952-14.409-40.011zm-.552 38.942c-.269 3.763-2.141 16.041-14.944 16.041s-14.676-12.278-14.944-16.041c-.737-10.318 6.122-21.305 12.172-30.999.953-1.527 1.884-3.019 2.772-4.481.888 1.462 1.819 2.954 2.772 4.481 6.05 9.693 12.909 20.681 12.172 30.999z"/><path d="m331.496 340.495c-3.748-6.005-7.997-12.811-7.997-16.267h-15c0 3.456-4.249 10.262-7.997 16.268-6.903 11.059-15.494 24.822-14.409 40.01 1.065 14.919 10.726 29.973 29.906 29.973s28.841-15.054 29.906-29.973c1.085-15.189-7.506-28.952-14.409-40.011zm-.553 38.942c-.269 3.763-2.141 16.041-14.944 16.041s-14.676-12.278-14.944-16.041c-.737-10.318 6.122-21.305 12.172-30.999.953-1.527 1.884-3.019 2.772-4.481.888 1.462 1.819 2.954 2.772 4.481 6.051 9.693 12.909 20.681 12.172 30.999z"/><path d="m383.35 425.75h-15c0 3.456-4.249 10.262-7.997 16.267-6.903 11.059-15.494 24.823-14.41 40.01 1.065 14.919 10.726 29.973 29.907 29.973 19.18 0 28.84-15.053 29.906-29.973 1.084-15.188-7.507-28.951-14.41-40.01-3.748-6.005-7.996-12.811-7.996-16.267zm7.444 55.208c-.269 3.764-2.141 16.042-14.944 16.042-12.804 0-14.676-12.278-14.944-16.041-.737-10.318 6.122-21.306 12.172-31 .953-1.527 1.884-3.019 2.772-4.481.888 1.462 1.818 2.954 2.772 4.481 6.05 9.695 12.909 20.682 12.172 30.999z"/><path d="m263.351 425.75h-15c0 3.456-4.249 10.262-7.997 16.267-6.903 11.059-15.494 24.823-14.41 40.01 1.066 14.919 10.726 29.973 29.907 29.973 19.18 0 28.84-15.053 29.906-29.973 1.084-15.188-7.506-28.951-14.41-40.01-3.747-6.005-7.996-12.811-7.996-16.267zm7.444 55.208c-.269 3.763-2.141 16.042-14.944 16.042-12.804 0-14.676-12.278-14.944-16.041-.737-10.318 6.122-21.306 12.172-31 .953-1.527 1.884-3.019 2.772-4.481.888 1.462 1.818 2.954 2.772 4.481 6.051 9.695 12.909 20.682 12.172 30.999z"/><path d="m143.353 425.75h-15c0 3.456-4.249 10.262-7.997 16.267-6.903 11.059-15.494 24.823-14.41 40.01 1.066 14.919 10.726 29.973 29.907 29.973s28.841-15.054 29.906-29.973c1.084-15.188-7.506-28.951-14.41-40.01-3.748-6.005-7.996-12.811-7.996-16.267zm7.444 55.209c-.269 3.763-2.141 16.041-14.944 16.041s-14.676-12.278-14.944-16.041c-.737-10.318 6.122-21.305 12.172-30.999.954-1.527 1.884-3.019 2.772-4.481.888 1.462 1.819 2.954 2.772 4.481 6.05 9.693 12.909 20.681 12.172 30.999z"/></g></g></svg>